<svg version="1.1" id="Layer_1" xmlns="http://www.w3.org/2000/svg" xmlns:xlink="http://www.w3.org/1999/xlink" x="0px" y="0px"
	 width="100%" viewBox="0 0 217 205" enable-background="new 0 0 217 205" xml:space="preserve">
<path fill="#5423e7" opacity="1.000000" stroke="none" 
	d="
M58.165199,162.024246 
	C54.414898,159.344559 51.021500,156.768600 47.673634,154.134796 
	C46.896770,153.523636 45.707954,152.743195 45.670761,151.992950 
	C45.335224,145.224472 44.648605,138.387299 45.335236,131.700714 
	C45.577110,129.345306 49.307392,127.322586 51.505459,125.210991 
	C52.077286,124.661644 52.860111,124.318275 53.574577,123.933281 
	C57.991669,121.553101 57.202496,119.320145 53.907490,116.281929 
	C48.031395,110.863770 42.472466,105.094116 36.903603,99.352440 
	C31.503595,93.784843 31.445396,89.149673 36.926151,83.660034 
	C42.189972,78.387688 47.525047,73.133492 53.291229,68.439339 
	C55.940018,66.283005 59.624493,65.256538 62.994076,64.221565 
	C63.910583,63.940060 65.914581,65.188766 66.522583,66.249344 
	C69.741989,71.865120 73.118835,77.466507 75.522438,83.442398 
	C76.741653,86.473648 78.127518,87.277733 80.900375,86.999084 
	C84.041893,86.683380 87.902565,87.485909 88.946754,83.220146 
	C89.736877,79.992310 89.850784,76.598961 90.345032,72.643890 
	C88.033546,73.280792 86.796936,73.624260 85.558823,73.962242 
	C77.747795,76.094505 74.526024,70.082741 71.202888,65.256927 
	C65.602745,57.124477 65.975739,54.728378 72.917755,47.666004 
	C93.268921,29.086599 97.903946,29.862591 103.067497,35.442112 
	C109.373970,42.256649 116.129852,48.655270 123.128700,55.672184 
	C126.493484,51.850334 129.285522,48.159565 132.640564,45.082684 
	C134.374390,43.492619 137.036270,42.726532 139.413177,42.088871 
	C141.123459,41.630051 143.065247,41.880600 144.887085,42.025078 
	C148.112488,42.280861 152.403931,41.518360 154.328415,43.280174 
	C158.954926,47.515621 164.251495,52.419228 165.983185,58.063980 
	C168.171066,65.195724 169.549759,73.790489 162.361206,80.095428 
	C161.524002,80.829720 160.535110,81.823151 159.558441,81.893860 
	C154.496597,82.260307 155.541260,85.304939 157.400711,87.610474 
	C160.464447,91.409195 164.244934,94.619774 167.540878,98.244141 
	C180.788483,115.373177 179.848145,119.314850 173.413406,125.992256 
	C168.710785,130.872253 163.599609,135.368607 158.541122,139.891235 
	C156.150452,142.028656 147.042389,141.352463 144.637543,139.101257 
	C138.907928,133.737671 135.915176,126.972488 134.687729,119.363022 
	C125.503540,120.137581 121.767738,123.453629 122.199417,129.855606 
	C128.085022,132.683273 133.943329,135.095047 139.385040,138.229980 
	C144.428024,141.135223 146.335510,151.445358 142.465866,155.803986 
	C136.788544,162.198654 130.527985,168.087372 124.350677,174.019592 
	C122.284195,176.004105 113.979088,175.386719 111.840820,173.285660 
	C105.372169,166.929611 98.994370,160.481140 92.572510,154.077377 
	C91.521179,153.029007 90.426003,152.024612 88.686440,150.366302 
	C81.654839,162.165619 72.748390,169.541931 58.165199,162.024246 
M138.013321,55.478973 C137.007263,58.528988 135.596359,61.512817 135.084518,64.643631 
	C134.187210,70.132202 127.433067,73.732140 123.010986,70.257462 
	C117.828415,66.185219 113.119720,61.474823 108.444115,56.802425 
	C103.855591,52.217045 99.566551,47.331974 95.227898,42.666416 
	C90.509254,46.474804 86.586479,49.460926 82.900978,52.715721 
	C81.657593,53.813801 81.015953,55.593254 80.099304,57.061306 
	C81.512009,57.710934 82.863991,58.613548 84.347176,58.969509 
	C94.689117,61.451569 101.310791,66.946983 101.222343,80.073952 
	C101.163071,88.868637 94.174423,97.314453 85.700233,98.924438 
	C75.248138,100.910210 66.123695,95.727539 62.991798,86.249344 
	C62.091869,83.525856 61.327267,80.757645 60.243145,77.154121 
	C58.296638,78.329453 56.687855,79.006691 55.456303,80.106392 
	C52.976372,82.320824 50.777134,84.847473 48.324081,87.094658 
	C45.053146,90.091072 45.138813,92.798775 48.310944,95.891449 
	C55.872814,103.263901 63.181286,110.898308 70.810890,118.198250 
	C73.922295,121.175224 73.297989,124.535004 72.526718,127.823532 
	C71.872551,130.612701 70.197174,132.318192 66.563293,132.227188 
	C63.841343,132.159027 60.940495,133.699295 58.352959,134.991364 
	C53.481709,137.423782 52.743248,139.591537 55.168327,144.229675 
	C57.286907,148.281647 61.111378,150.874374 65.410835,150.489288 
	C67.459763,150.305786 69.474625,146.859055 71.000046,144.556046 
	C72.414909,142.419937 73.334755,139.898361 74.163200,137.442169 
	C76.664436,130.026428 77.825432,129.458191 85.104889,133.080765 
	C86.978470,134.013153 88.742325,135.345047 90.245186,136.812363 
	C96.739830,143.153381 103.003937,149.735489 109.625206,155.938156 
	C111.177231,157.392044 114.867126,159.033310 115.743523,158.324814 
	C120.297356,154.643433 124.259003,150.229507 128.720154,145.778091 
	C113.034630,140.642395 105.149918,133.156158 106.135292,123.740585 
	C107.238068,113.203072 113.572876,105.300262 125.318245,103.085335 
	C134.654968,101.324631 142.088455,108.363823 148.967880,125.370926 
	C154.099396,120.758591 159.080963,116.281052 164.297562,111.592247 
	C156.754120,104.119591 149.898758,96.553131 142.207123,89.962654 
	C136.401398,84.988083 134.866943,79.430618 136.436798,72.197914 
	C139.455353,71.472519 142.944778,71.327438 145.663086,69.805283 
	C149.065811,67.899864 152.322464,65.214561 154.571777,62.094288 
	C155.220749,61.194035 152.189697,57.635353 150.833496,55.302624 
	C147.364624,50.656681 141.281464,50.850239 138.013321,55.478973 
z"/>
</svg>